PathFileType	4	(X/Y/Z)	C:/Users/beibeiliu/ov580/test_trc/User1\sequence.34_training_dense_left.trc
DataRate	CameraRate	NumFrames	NumMarkers	Units	OrigDataRate	OrigDataStartFrame	OrigNumFrames
120	120	15	19	mm	120	59	234
Frame#	Time	ThumbCMC			ThumbMCP			ThumbIP			ThumbTip			IndexMCP			IndexPIP			IndexTip			MiddleMCP			MiddlePIP			MiddleTip			RingMCP			RingPIP			RingTip			PinkyMCP			PinkyPIP			PinkyTip			BackHand1			BackHand2			BackHand3	
		X0	Y0	Z0	X1	Y1	Z1	X2	Y2	Z2	X3	Y3	Z3	X4	Y4	Z4	X5	Y5	Z5	X6	Y6	Z6	X7	Y7	Z7	X8	Y8	Z8	X9	Y9	Z9	X10	Y10	Z10	X11	Y11	Z11	X12	Y12	Z12	X13	Y13	Z13	X14	Y14	Z14	X15	Y15	Z15	X16	Y16	Z16	X17	Y17	Z17	X18	Y18	Z18	
58	0.483333	-182.149	-37.246	60.2411	-166.968	-14.6849	37.4813	-158.894	-1.91376	15.2618	-145.955	11.0123	-5.31303	-154.827	-67.2431	-16.47	-137.4	-57.7492	-40.7612	-116.737	-30.8713	-50.8609	-129.59	-80.4194	-15.1875	-110.777	-59.7931	-40.8938	-93.2955	-29.4374	-44.2938	-106.881	-74.6836	-0.292077	-90.671	-42.4758	-6.65502	-94.0445	-20.7825	12.6001	-90.6737	-71.0988	24.6681	-89.5378	-41.5968	24.7747	-110.293	-25.5034	47.1744	-137.502	-94.7033	47.8575	-147.802	-95.3084	84.9603	-170.798	-82.0598	54.9929	
59	0.491667	-182.643	-39.455	63.3625	-168.89	-16.5598	39.239	-161.477	-4.24672	16.1225	-148.336	7.1872	-4.11236	-156.978	-68.1144	-19.2926	-142.363	-55.3872	-43.6218	-122.966	-35.9017	-49.1477	-129.055	-81.474	-17.1556	-115.992	-63.7633	-39.6812	-95.5806	-32.9537	-42.4242	-105.787	-72.8357	-1.79856	-94.854	-40.2318	-6.41281	-97.3807	-18.4933	19.3296	-92.421	-71.5983	26.3848	-90.8978	-38.2354	28.5457	-110.312	-28.077	46.1443	-132.875	-98.017	54.9066	-144.342	-98.6191	86.1724	-173.044	-82.7379	56.4779	
60	0.5	-183.406	-42.3306	64.8085	-170.998	-19.5689	40.9714	-163.925	-4.97615	13.0965	-153.022	4.75796	-3.08028	-157.921	-71.0099	-11.808	-142.506	-61.1037	-39.3378	-122.738	-33.7463	-50.1241	-134.284	-81.4105	-16.2417	-117.717	-65.4233	-38.1724	-102.108	-29.3168	-45.7342	-107.126	-73.7019	-0.772829	-93.9454	-41.415	-5.21125	-100.665	-20.6002	16.7491	-93.773	-69.4673	24.9485	-90.3027	-39.4406	27.3093	-110.328	-24.934	48.0232	-133.322	-97.2388	50.9283	-144.568	-97.177	88.5146	-166.56	-85.3313	59.8625	
61	0.508333	-183.519	-43.7582	64.3573	-173.544	-18.6981	41.4632	-167.423	-5.29807	17.5245	-157.631	7.78203	-4.15604	-156.597	-73.6074	-10.8448	-142.679	-61.9076	-39.4222	-129.754	-35.3369	-51.0249	-132.949	-82.0195	-16.495	-116.814	-63.4398	-39.7444	-103.897	-30.8198	-45.5679	-105.65	-74.4013	1.50836	-97.1553	-40.9798	-6.56221	-100.676	-20.5404	20.416	-89.8409	-67.6079	24.4505	-92.9066	-37.319	27.0799	-113.805	-28.3605	47.9145	-130.179	-97.5778	51.7842	-141.142	-97.4323	86.1044	-171.809	-86.5393	61.4494	
62	0.516667	-183.204	-44.4828	66.4726	-173.513	-19.7452	39.3884	-168.066	-7.6319	19.763	-158.479	5.32897	-4.05088	-158.185	-73.4805	-13.8592	-146.3	-63.1901	-39.0217	-128.372	-34.7877	-49.9036	-134.457	-82.6937	-14.3738	-121.027	-62.5992	-41.5826	-103.878	-33.1209	-46.2705	-106.725	-72.4254	-0.616961	-99.7936	-41.171	-8.45557	-104.329	-19.683	20.4187	-92.3762	-68.0258	23.8845	-93.3399	-37.1965	26.123	-114.848	-26.8912	50.343	-133.933	-97.9205	56.25	-142.676	-96.3614	87.1095	-168.981	-86.4831	61.5609	
63	0.525	-181.854	-45.3348	66.3061	-174.523	-20.3129	41.6842	-168.957	-8.61272	18.6287	-159.022	4.41037	-3.06476	-159.443	-73.0822	-12.3237	-145.925	-61.3524	-40.1857	-131.602	-34.7953	-51.1345	-133.23	-82.7007	-15.4164	-122.47	-65.3	-39.9171	-109.163	-31.4404	-47.426	-109.751	-73.626	1.19687	-100.971	-39.3323	-7.39232	-104.264	-20.1609	18.8173	-95.6094	-69.2836	23.6468	-93.203	-37.2682	25.4419	-118.329	-29.5148	47.8421	-134.218	-96.2752	54.6348	-138.409	-99.5576	90.2106	-169.792	-87.7861	59.7742	
64	0.533333	-180.473	-47.5508	65.3472	-174.94	-19.7752	44.3148	-171.324	-6.90535	14.3638	-160.24	3.88855	-2.24945	-158.822	-73.9974	-13.9196	-146.651	-61.3492	-41.2619	-135.764	-37.8594	-51.1525	-136.554	-83.1305	-15.4162	-121.117	-63.9132	-41.2977	-107.493	-31.7682	-47.8816	-107.253	-72.5511	-1.24146	-100.159	-39.9441	-7.96096	-108.168	-19.4385	18.659	-96.5755	-65.9451	22.81	-96.4367	-35.546	25.4575	-115.239	-27.7709	50.6011	-132.05	-96.8682	54.7288	-139.326	-96.6785	88.5407	-168.856	-85.4598	61.0699	
65	0.541667	-181.565	-45.8566	66.0252	-174.587	-20.4301	39.143	-170.957	-7.30688	20.3837	-163.589	4.93488	-2.41613	-162.784	-73.5972	-9.07741	-147.525	-61.8007	-39.0532	-133.881	-35.5282	-52.2612	-137.729	-82.6494	-14.9325	-120.76	-65.3841	-40.0412	-107.065	-36.6702	-47.6666	-112.621	-69.7289	-1.97058	-102.801	-37.3969	-6.99084	-107.338	-19.1482	19.3732	-96.3033	-62.3166	21.7711	-95.4392	-34.3943	27.5771	-121.76	-30.0527	48.7691	-132.801	-94.7641	57.0624	-137.84	-98.9343	86.9925	-167.617	-87.52	63.2439	
66	0.55	-184.206	-43.1858	66.0354	-178.417	-17.4624	43.2572	-172.943	-5.44337	18.279	-166.68	9.0917	-2.51359	-164.416	-70.6605	-8.92044	-150.474	-60.3226	-38.3154	-136.206	-33.7639	-51.1708	-135.944	-81.3545	-14.5334	-126.809	-66.2996	-39.4652	-108.778	-31.8106	-48.4171	-111.394	-68.4018	-0.986691	-99.8269	-36.8762	-6.81952	-108.215	-17.4365	16.3963	-95.7012	-64.6923	24.8798	-98.6274	-34.1583	26.426	-117.504	-27.7418	52.3103	-135.187	-94.2881	56.8107	-139.423	-95.2875	87.2286	-170.279	-85.9336	63.397	
67	0.558333	-187.12	-41.2671	65.495	-178.988	-14.6273	44.8106	-175.457	-0.209953	18.9856	-163.598	10.9557	-1.02075	-160.64	-66.2527	-9.555	-149.455	-54.5744	-36.8827	-135.312	-29.2422	-49.7231	-134.839	-75.731	-12.5544	-121.635	-58.382	-39.1319	-106.325	-28.836	-46.5748	-111.442	-65.0104	0.167513	-101.733	-30.7835	-3.71317	-109.967	-14.0709	21.7117	-94.4958	-57.0456	24.6428	-98.6271	-28.4928	31.293	-122.126	-28.5177	54.6873	-135.096	-93.1195	55.4477	-142.372	-92.8624	85.3206	-170.971	-82.6771	61.3676	
68	0.566667	-188.145	-39.0859	66.6773	-180.947	-10.7167	45.9973	-174.042	1.24851	24.4838	-165.193	18.332	3.94616	-159.484	-59.866	-13.3041	-144.047	-45.4927	-39.585	-127.805	-22.0755	-45.5706	-132.75	-71.2345	-13.4203	-118.228	-53.6628	-35.8287	-105.787	-21.9237	-44.2968	-112.337	-61.2477	1.8574	-100.352	-27.7435	-1.60279	-104.858	-11.0116	24.7678	-92.4568	-56.0854	27.615	-99.0548	-26.0799	32.0109	-122.609	-23.5872	52.657	-135.273	-89.6265	51.1869	-142.503	-95.1653	85.568	-169.57	-80.1642	59.0412	
69	0.575	-186.33	-39.6538	68.0488	-179.661	-9.68249	45.6062	-174.532	6.51626	24.7543	-165.503	23.8644	9.42785	-159.935	-53.328	-14.341	-140.828	-38.1529	-37.0343	-124.397	-14.2278	-41.7165	-128.38	-64.0153	-14.7313	-113.89	-46.5707	-33.6679	-99.77	-12.1214	-39.2552	-106.404	-56.651	4.82388	-95.433	-25.3333	2.25368	-106.201	-6.80624	28.0985	-91.7354	-53.0942	29.2392	-97.9709	-24.1653	34.3395	-119.06	-17.9421	55.4962	-135.33	-89.7717	54.7405	-144.554	-93.7561	88.6692	-170.842	-78.3565	58.9259	
70	0.583333	-189.854	-36.2436	66.9052	-177.998	-9.24521	49.858	-172.961	11.021	28.969	-163.369	28.2628	13.0601	-157.005	-48.4887	-13.644	-142.127	-35.0483	-33.8763	-118.697	-6.23186	-37.6383	-130.116	-58.4218	-11.7092	-110.694	-39.8002	-30.0047	-98.7706	-7.02623	-33.9769	-104.999	-54.6913	7.35939	-96.3154	-18.3378	7.61474	-105.51	-3.50791	37.1341	-90.4251	-50.3986	32.8801	-92.5117	-23.0224	40.6923	-122.761	-19.5462	59.7776	-134.459	-87.9282	52.2586	-150.835	-91.0207	85.2715	-172.548	-76.2204	58.2446	
71	0.591667	-189.315	-34.8817	63.001	-181.374	-4.40305	53.7698	-170.23	13.1467	33.1246	-161.576	34.6342	19.5472	-148.42	-44.7218	-10.8213	-132.613	-26.0984	-31.0514	-113.949	0.606656	-31.9218	-125.719	-55.1611	-9.60314	-108.804	-32.2213	-27.253	-91.5437	1.86116	-26.5864	-103.344	-48.3665	8.60814	-91.798	-19.9414	9.97258	-102.549	-0.871886	41.2083	-91.5524	-52.6104	38.6866	-94.9278	-21.518	45.1206	-123.954	-17.4111	63.3536	-134.435	-85.1607	51.0707	-150.302	-92.5162	83.1667	-174.801	-73.5088	54.0203	
72	0.6	-191.035	-32.8728	66.6584	-178.651	-2.28561	54.487	-170.189	19.0051	36.4687	-156.466	35.7081	24.1375	-145.93	-40.7491	-10.6976	-127.394	-24.0292	-27.9783	-111.423	2.05097	-28.5638	-118.944	-51.3762	-8.83886	-99.1207	-27.4697	-22.2005	-84.9906	2.06804	-18.7329	-99.5536	-48.1969	12.4808	-88.9686	-15.3047	15.6173	-101.37	1.29136	43.571	-92.9584	-51.0929	39.5244	-92.1704	-21.8905	48.9087	-120.317	-15.6785	68.3664	-135.228	-86.7101	53.6274	-154.663	-92.9748	84.3559	-173.06	-73.4302	55.5384	
